<svg xmlns="http://www.w3.org/2000/svg" viewBox="0 0 288.2 328.8"><defs><style>.cls-1{fill:#fff;}.cls-2{fill:#293549;}.cls-3{fill:#3bab5e;}.cls-4{fill:#f7f8f9;}.cls-5{fill:#424143;opacity:0.4;}.cls-5,.cls-6{isolation:isolate;}.cls-6{fill:#221f1f;opacity:0.1;}</style></defs><title>agencia</title><g id="Capa_2" data-name="Capa 2"><g id="Pagina_Inicial_Movil" data-name="Pagina Inicial Movil"><path class="cls-1" d="M0,88.3A13.9,13.9,0,0,1,6.3,77.5l131.6-76a13.9,13.9,0,0,1,12.5,0l131.6,76a13.9,13.9,0,0,1,6.3,10.9v152a13.9,13.9,0,0,1-6.3,10.9l-131.6,76a13.9,13.9,0,0,1-12.5,0L6.3,251.2A13.9,13.9,0,0,1,0,240.3Z"/><path class="cls-2" d="M68.8,55.1a8.8,8.8,0,0,1,8.9-8.9H210.9a8.8,8.8,0,0,1,8.9,8.9V273.7a8.8,8.8,0,0,1-8.9,8.9H77.6a8.8,8.8,0,0,1-8.9-8.9Z"/><rect class="cls-3" x="77.6" y="77.1" width="133.2" height="166.96"/><path class="cls-4" d="M149.7,60.7h-11a.4.4,0,0,1-.5-.5.5.5,0,0,1,.5-.5h11a.5.5,0,1,1,0,1Z"/><path class="cls-4" d="M153.3,63.2H135.2a.5.5,0,0,1-.5-.5.4.4,0,0,1,.5-.5h18.1a.5.5,0,0,1,.5.5A.4.4,0,0,1,153.3,63.2Z"/><path class="cls-4" d="M149.7,65.5h-11a.5.5,0,1,1,0-1h11a.5.5,0,1,1,0,1Z"/><path class="cls-4" d="M144.3,274.5a9.6,9.6,0,0,1-9.5-9.7,9.4,9.4,0,0,1,9.5-9.5,9.5,9.5,0,0,1,9.5,9.5A9.7,9.7,0,0,1,144.3,274.5Zm0-18.4a8.7,8.7,0,1,0,8.7,8.7A8.8,8.8,0,0,0,144.3,256.1Z"/><rect class="cls-4" x="88.7" y="86" width="111" height="31.42"/><rect class="cls-5" x="127.6" y="127.8" width="72.2" height="31.42"/><rect class="cls-5" x="88.7" y="127.5" width="31.7" height="31.75"/><rect class="cls-5" x="127.6" y="167" width="72.2" height="31.42"/><rect class="cls-5" x="88.7" y="166.6" width="31.7" height="31.75"/><rect class="cls-5" x="127.6" y="205.9" width="72.2" height="31.42"/><rect class="cls-5" x="88.7" y="205.8" width="31.7" height="31.75"/><path class="cls-6" d="M281.9,77.5,150.2,1.5A11.7,11.7,0,0,0,144.3,0V328.8a11.7,11.7,0,0,0,5.9-1.5l131.6-76a13.9,13.9,0,0,0,6.3-10.9V88.3A13.3,13.3,0,0,0,281.9,77.5Z"/></g></g></svg>