<svg xmlns="http://www.w3.org/2000/svg" viewBox="0 0 90 90"><defs><style>.cls-1{fill:#7cb242;}.cls-2{fill:#fff;}</style></defs><title>icono</title><g id="Capa_2" data-name="Capa 2"><g id="Pagina_Inicial_Movil" data-name="Pagina Inicial Movil"><g id="_fa-amazon" data-name=" fa-amazon"><circle class="cls-1" cx="45" cy="45" r="45"/><g id="_fa-angle-down" data-name=" fa-angle-down"><path class="cls-2" d="M66.1,63.4c-1,1.1-8.7,7.6-21.8,7.6S21.3,62.9,18.2,59.5c-.8-.9.1-1.3.7-.9,9.2,5,23.5,13.3,46.5,3.4C66.4,61.6,67.1,62.2,66.1,63.4ZM63.6,52.2l-7.1,6.3c-2.8-2.4-4.9-4.4-4.9-4.4l-.8-.9c-5.7,8-22.9,7.5-22.9-4.9S43.1,35.2,49.2,35V31.4c0-.8.3-4.2-4.4-4.2,0,0-4.7,0-6.8,5.6L28.8,32c0-5.6,5.8-11.8,16.8-11.8s14,6.5,14,9.3V46.2C59.6,49.3,63.6,52.2,63.6,52.2ZM49.2,44.8V40.2c-4.2.1-10.5,1.2-10.5,6.5S49.2,53.9,49.2,44.8Zm22,18.8a9.5,9.5,0,0,1-2.7,3.5c-.7.5-1.2.3-.8-.4s2.4-5.3,1.6-6.2-4.6-.5-6-.4-1.6.2-1.7,0,2.7-1.8,4.7-2,5.1-.1,5.7.7S71.9,61.8,71.1,63.6Z"/></g></g></g></g></svg>